<svg xmlns="http://www.w3.org/2000/svg" width="34" height="34" fill="none" viewBox="0 0 34 34">
    <g fill="#363C4B" clip-path="url(#clip0)">
        <path d="M9.212 18.439c-.21-.213-.553-.216-.766-.006-.212.21-.215.552-.005.765l.041.042c.106.105.244.158.382.158.14 0 .278-.053.383-.159.212-.212.211-.554 0-.765l-.035-.035z"/>
        <path d="M19.349 8.376c-2.996-2.996-7.87-2.996-10.866 0-2.362 2.361-2.93 5.945-1.417 8.92.136.265.462.371.728.236.267-.136.373-.462.237-.728-1.301-2.555-.812-5.634 1.217-7.663 2.574-2.574 6.762-2.574 9.336 0 2.574 2.574 2.574 6.762 0 9.336-1.953 1.953-4.947 2.483-7.45 1.32-.271-.125-.593-.008-.72.263-.125.271-.007.593.264.719 1.03.478 2.13.71 3.224.71 2 0 3.978-.777 5.447-2.247 2.996-2.996 2.996-7.87 0-10.866z"/>
        <path d="M30.432 26.856l-7.41-7.41c1.02-1.639 1.609-3.57 1.609-5.639 0-5.907-4.806-10.713-10.714-10.713S3.203 7.9 3.203 13.807c0 5.908 4.806 10.714 10.714 10.714 2.067 0 4-.589 5.638-1.607l7.41 7.409c.316.316.732.474 1.147.474.416 0 .832-.158 1.148-.474l1.172-1.172c.633-.633.633-1.662 0-2.295zM4.285 13.807c0-5.31 4.321-9.631 9.632-9.631 5.31 0 9.632 4.32 9.632 9.631s-4.321 9.632-9.632 9.632-9.632-4.32-9.632-9.632zm18.11 6.542l1.198 1.198-1.937 1.937-1.198-1.198c.725-.56 1.377-1.212 1.937-1.937zm7.272 8.037l-1.172 1.171c-.21.212-.554.212-.765 0l-5.308-5.308 1.936-1.937 5.309 5.309c.21.21.21.554 0 .765z"/>
        <path d="M17.702 13.807c0 .298.243.54.542.54.298 0 .54-.242.54-.54 0-1.86-1.082-3.583-2.758-4.39-.27-.13-.593-.016-.722.253-.13.269-.017.592.252.722 1.304.628 2.146 1.968 2.146 3.415zM13.925 10.02c.298 0 .54-.243.54-.541 0-.3-.242-.541-.54-.541h-.009c-.299 0-.541.242-.541.54 0 .3.242.542.541.542h.008z"/>
    </g>
    <defs>
        <clipPath id="clip0">
            <path fill="#fff" d="M0 0H27.704V27.704H0z" transform="translate(3.14844 3.14844)"/>
        </clipPath>
    </defs>
</svg>
